<svg xmlns="http://www.w3.org/2000/svg" baseProfile="full" viewBox="0 0 76 76" xmlns:v="https://vecta.io/nano"><path d="M34.042 19a3.96 3.96 0 0 1 .792 7.838l.398 6.412h9.102v3.167h-8.905l.197 3.167h11.083l4.921 11.052 3.198-1.358 1.237 2.915-6.037 2.63-.025-.057-.077.033-5.273-12.049H31.667V26.125a3.95 3.95 0 0 1-1.583-3.167A3.96 3.96 0 0 1 34.042 19zm.792 39.583a11.88 11.88 0 0 1-11.875-11.875c0-4.87 2.931-9.054 7.125-10.887v3.587a8.7 8.7 0 0 0-3.958 7.3 8.71 8.71 0 0 0 8.708 8.708 8.71 8.71 0 0 0 8.708-8.708l-.004-.091 2.006 5.226c-1.915 3.987-5.991 6.74-10.71 6.74z"/></svg>