<?xml version="1.0" standalone="no"?>
<!DOCTYPE svg PUBLIC "-//W3C//DTD SVG 20010904//EN"
 "http://www.w3.org/TR/2001/REC-SVG-20010904/DTD/svg10.dtd">
<svg version="1.0" xmlns="http://www.w3.org/2000/svg"
 width="67.000000pt" height="134.000000pt" viewBox="0 0 67.000000 134.000000"
 preserveAspectRatio="xMidYMid meet">

<g transform="translate(0.000000,134.000000) scale(0.100000,-0.100000)"
fill="#000000" stroke="none">
<path d="M254 1296 c-28 -28 -34 -42 -34 -76 0 -57 50 -110 104 -110 71 0 116
43 116 110 0 67 -45 110 -116 110 -28 0 -44 -8 -70 -34z"/>
<path d="M192 1053 c-31 -15 -82 -75 -82 -97 0 -5 -25 -75 -55 -156 -58 -159
-61 -190 -16 -190 14 0 31 4 37 8 6 4 35 72 64 152 29 80 57 149 61 154 27 31
12 -28 -60 -231 -45 -125 -81 -236 -81 -245 0 -25 31 -38 89 -38 l51 0 0 -188
c0 -170 2 -191 18 -205 25 -22 48 -21 72 3 19 19 20 33 20 210 l0 190 25 0 25
0 0 -190 c0 -177 1 -191 20 -210 24 -24 38 -25 68 -4 21 15 22 20 22 205 l0
189 51 0 c56 0 89 13 89 35 0 8 -38 118 -84 245 -46 127 -79 233 -74 236 5 3
11 4 12 3 2 -2 29 -73 61 -157 49 -128 62 -153 82 -158 69 -18 69 21 -2 201
-30 77 -55 145 -55 151 0 19 -49 73 -81 89 -41 22 -232 20 -277 -2z"/>
</g>
</svg>
