<?xml version="1.0" standalone="no"?>
<!DOCTYPE svg PUBLIC "-//W3C//DTD SVG 20010904//EN"
 "http://www.w3.org/TR/2001/REC-SVG-20010904/DTD/svg10.dtd">
<svg version="1.0" xmlns="http://www.w3.org/2000/svg"
 width="428.000000pt" height="918.000000pt" viewBox="0 0 428.000000 918.000000"
 preserveAspectRatio="xMidYMid meet">

<g transform="translate(0.000000,918.000000) scale(0.100000,-0.100000)"
fill="#000000" stroke="none">
<path d="M1934 9146 c-288 -76 -513 -295 -595 -578 -33 -115 -37 -292 -10
-411 74 -322 326 -567 650 -633 110 -22 284 -15 389 15 275 79 494 300 574
578 30 104 33 333 5 433 -62 228 -224 426 -431 530 -136 68 -194 82 -356 86
-118 4 -146 1 -226 -20z"/>
<path d="M1235 7053 c-50 -27 -99 -66 -171 -138 -83 -83 -107 -115 -142 -185
-35 -70 -115 -341 -453 -1525 -225 -792 -422 -1467 -437 -1500 -23 -52 -27
-73 -26 -155 0 -74 5 -108 22 -151 21 -52 27 -59 73 -79 109 -46 233 -45 328
2 l45 23 416 1245 415 1245 3 -815 2 -814 -211 -1896 c-151 -1360 -209 -1910
-204 -1948 15 -122 122 -264 242 -320 52 -24 70 -27 168 -27 105 0 114 2 178
33 37 19 89 55 116 82 56 56 108 152 115 213 27 220 421 2957 425 2957 5 0
371 -2537 418 -2890 24 -182 95 -290 238 -361 67 -33 74 -34 180 -34 98 0 116
3 168 27 120 56 227 198 242 320 5 38 -53 588 -204 1948 l-211 1895 1 815 0
815 417 -1245 417 -1245 46 -23 c96 -48 219 -48 328 -2 46 20 52 27 73 79 17
43 22 77 22 151 1 82 -3 103 -26 155 -15 33 -212 708 -437 1500 -338 1184
-418 1455 -453 1525 -35 71 -59 102 -142 185 -68 68 -123 112 -170 138 l-69
37 -836 0 -836 -1 -70 -36z"/>
</g>
</svg>
