<?xml version="1.0" standalone="no"?>
<!DOCTYPE svg PUBLIC "-//W3C//DTD SVG 20010904//EN"
 "http://www.w3.org/TR/2001/REC-SVG-20010904/DTD/svg10.dtd">
<svg version="1.0" xmlns="http://www.w3.org/2000/svg"
 width="50.000000pt" height="107.000000pt" viewBox="0 0 50.000000 107.000000"
 preserveAspectRatio="xMidYMid meet">

<g transform="translate(0.000000,107.000000) scale(0.100000,-0.100000)"
fill="#000000" stroke="none">
<path d="M181 1034 c-50 -64 -11 -154 67 -154 81 0 122 89 71 154 -17 22 -28
26 -69 26 -41 0 -52 -4 -69 -26z"/>
<path d="M125 800 c-18 -20 -112 -318 -117 -374 -3 -27 0 -31 22 -31 23 0 28
10 70 130 l45 130 3 -90 c2 -49 -7 -178 -18 -286 -12 -107 -20 -211 -18 -230
3 -30 7 -34 35 -37 43 -4 49 9 75 182 12 81 25 146 28 146 3 0 17 -69 29 -152
13 -84 28 -159 34 -166 5 -7 24 -12 41 -10 27 3 31 7 34 36 2 19 -6 122 -18
230 -11 108 -20 238 -18 287 l3 90 45 -130 c38 -111 48 -130 68 -133 12 -2 24
3 27 10 5 11 -46 199 -96 356 -19 57 -30 62 -148 62 -95 0 -110 -2 -126 -20z"/>
</g>
</svg>
