<svg xmlns="http://www.w3.org/2000/svg" width="4000" height="4000" xmlns:v="https://vecta.io/nano"><path d="M2333.333 500c0 134.821-81.214 256.366-205.772 307.96s-267.931 23.075-363.263-72.258-123.851-238.705-72.258-363.263S1865.179 166.667 2000 166.667c184.095 0 333.333 149.238 333.333 333.333v500h-666.667c-73.999 33.404-133.262 92.668-166.667 166.667h0l-333.333 1166.667a166.67 166.67 0 0 0 0 166.667 166.67 166.67 0 0 0 166.667 0h0l333.333-1000v666.667l-166.667 1500c0 92.047 74.619 166.667 166.667 166.667s166.667-74.619 166.667-166.667h0L2000 2500l166.667 1166.667c0 92.047 74.619 166.667 166.667 166.667S2500 3758.714 2500 3666.667h0l-166.667-1500V1500l333.333 1000a166.67 166.67 0 0 0 166.667 0 166.67 166.67 0 0 0 0-166.667h0L2500 1166.667c-33.404-73.999-92.668-133.262-166.667-166.667"/></svg>