<svg xmlns="http://www.w3.org/2000/svg" width="62" height="56" xmlns:v="https://vecta.io/nano"><path d="M42.375 3C49.394 7.04 54.809 13.139 57 21c1.019 8.72.239 15.8-5 23-5.006 5.54-10.402 9.463-17.977 10.348-8.837.404-15.453-1.218-22.09-7.215-6.462-6.934-8.6-13.4-8.34-22.848 1.003-8.11 5.049-13.894 11.387-18.879C23.147-.28 33.249-1.124 42.375 3zM14.438 13.402C10.455 17.829 8.838 23.09 9 29c1.164 6.555 4.065 11.559 9 16 5.019 3.273 10.351 4.648 16.266 3.598 6.844-1.967 11.721-5.51 15.609-11.473 2.37-6.584 2.677-11.44.203-17.949C47.188 13.344 43.183 9.226 37 7c-8.842-2.029-15.947.169-22.562 6.402zM22 14l5 1v12h7V15l5-1c1 1 1 1 1.114 3.408l-.016 3.158-.01 3.408-.025 3.588-.014 3.6L40 40l-5 1c-1-1-1-1-1.062-4.562L34 33l-1.828-.078-2.422-.172-2.391-.141C24.147 31.78 22.946 30.679 21 28c-.426-3.199-.426-3.199-.312-6.687l.074-3.512C21 15 21 15 22 14z"/></svg>