<svg xmlns="http://www.w3.org/2000/svg" width="88" height="93" xmlns:v="https://vecta.io/nano"><path d="M46.563 22.438C55.49 23.692 55.49 23.692 64 22c6.471-.353 6.471-.353 10 2a70.1 70.1 0 0 1 .188 8.125l-.041 2.285L74 40c-2.879 1.439-5.355 1.055-8.562 1-4.106-.038-8.06-.021-12.125.563C47.858 42.29 41.001 42.501 36 40c-1.28 5.403-1.2 10.595 0 16 1.837 2.967 1.837 2.967 4 5 2.341 4.682.95 11.038 0 16l-.5 3.813C39 84 39 84 38 85c-2.937.188-2.937.188-6 0-2-2-2-2-2.125-5.625L30 76l-2.812-.687C24 74 24 74 22.188 71.875c-1.28-3.098-1.585-5.673-1.867-8.98-.215-2.097-.215-2.097-1.945-4.207-1.94-3.792-1.222-6.752-.691-10.898.281-2.478.308-4.743.191-7.227C18 37 18 37 19.375 34.5 21 33 21 33 23 33l.75-2.812C25.122 26.689 25.853 25.881 29 24c2.508-.477 2.508-.477 5.125-.625 4.539-.283 7.838-1.413 12.438-.937z"/></svg>