<svg xmlns="http://www.w3.org/2000/svg" width="58" height="53" xmlns:v="https://vecta.io/nano"><path d="M43.844 3.449C49.145 7.262 53.552 12.509 55 19c1.03 8.728.198 15.772-5 23-4.664 5.229-9.993 8.527-16.98 9.352-8.646.385-15.314-1.154-21.863-6.996-6.202-6.734-7.805-13.03-7.566-22.066.846-6.787 3.771-12.109 8.785-16.727 9.518-7.179 20.962-8.168 31.469-2.113zM13 13c-3.385 5.135-4.803 11.065-3.562 17.145 1.98 5.883 5.076 10.217 10.313 13.668 6.449 2.356 12.006 3.013 18.398.199C43.406 41.139 46.905 37.734 49 32c1.517-6.325 1.133-11.267-2-17-3.283-5.128-7.139-8.074-13.102-9.504C25.323 4.096 19.031 6.969 13 13zm11.023-1.266l2.352.016 2.336-.016c2.606.302 4.151.732 6.289 2.266.758 2.137.758 2.137 1.125 4.688.502 3.194 1.084 6.088 2.188 9.125C39 31 39 31 37.938 33.75c-2.766 3.212-4.904 5.093-9.262 5.43A107.56 107.56 0 0 1 22 39l-2-4c2.495-2.495 3.673-2.359 7.125-2.625l2.758-.227L32 32l-1-5-8-1v-5l3.438-.375L30 20l1-2h-9l-2-4c2-2 2-2 4.023-2.266z"/></svg>