<svg xmlns="http://www.w3.org/2000/svg" width="60" height="62" xmlns:v="https://vecta.io/nano"><path d="M41.375 8C48.394 12.04 53.809 18.139 56 26c1.019 8.72.239 15.8-5 23-5.006 5.54-10.402 9.463-17.977 10.348-8.837.404-15.453-1.218-22.09-7.215-6.462-6.934-8.6-13.4-8.34-22.848 1.003-8.11 5.049-13.894 11.387-18.879C22.147 4.72 32.249 3.876 41.375 8zM13.438 18.402C9.455 22.829 7.838 28.09 8 34c1.164 6.555 4.065 11.559 9 16 5.019 3.273 10.351 4.648 16.266 3.598 6.844-1.967 11.721-5.51 15.609-11.473 2.37-6.584 2.677-11.44.203-17.949C46.188 18.344 42.183 14.226 36 12c-8.842-2.029-15.947.169-22.562 6.402zM33 19c2.753 1.796 4.526 3.053 6 6 .414 4.661-.085 7.308-3 11-3.187 2.313-3.187 2.313-6 4l8 1c.563 1.938.563 1.938 1 4-2.05 2.05-6.129 1.231-8.937 1.25l-2.248.063c-2.154.016-2.154.016-5.814-.312-2-3-2-3-1.902-5.48 1.151-3.214 2.466-4.052 5.34-5.832l2.434-1.551C30 32 30 32 32 32v-6h-5l-2 5-5-1c.233-4.042.423-6.338 3.125-9.437C26.777 18.578 28.895 18.414 33 19z"/></svg>