<svg xmlns="http://www.w3.org/2000/svg" width="96" height="106.667" viewBox="0 0 72 80" preserveAspectRatio="xMidYMid meet" xmlns:v="https://vecta.io/nano"><path d="M33.3 17.4c-6 2.7-8.6 10-6.3 18.1 1.8 6.3 3.1 7.1 6.4 3.6l2.7-2.8-2-3.4C30.3 26.7 31.8 22 37.5 22c5.4 0 7.1 4.1 4.1 9.8-1.7 3.2-12.7 14-20.8 20.5L15 56.8l3.8.9c3.2.8 3.8 1.3 4.2 4.3l.6 3.5 9.6-9.7C43.5 45.4 49 36.5 49 30.3c0-9.8-7.9-16.3-15.7-12.9zm8.8 31.3c-1.7 2.1-3.1 4.1-3.1 4.4 0 .4 2.8 3.3 6.3 6.4l6.2 5.6.8-3.4c.7-3 1.4-3.6 4.3-4.2l3.4-.6-2.7-2.3-7.4-5.9-4.7-3.8-3.1 3.8z"/></svg>