<svg xmlns="http://www.w3.org/2000/svg" width="114.667" height="104" viewBox="0 0 86 78" preserveAspectRatio="xMidYMid meet" xmlns:v="https://vecta.io/nano"><path d="M39 16.9c-4.4 2.3-4.9 6-1.7 11.6 5.5 9.6 14.5 11 26 3.8 4-2.5 4.8-4.3 1.8-4.3-3.5 0-7.1-3.8-7.1-7.5 0-3.1-.4-3.5-3.7-4.4-5.7-1.6-11.4-1.3-15.3.8zm12.4 3.7c1.9 1.8 1.9 2 .6 4.5-1.5 2.7-6.6 2.6-8-.2-2.3-4.2 4-7.8 7.4-4.3zM46 22.4c-1 1.3-.9 1.7.4 2.2 2.2.8 4.9-.3 4.4-1.9-.7-1.8-3.3-2-4.8-.3zm-21.5-3.9C23.1 19.8 22 22 22 23.4c0 2.4.1 2.5 3.2 1.2 4.3-1.8 10-6.5 9.3-7.7-1.2-1.9-7.5-1-10 1.6zM60 20.3c0 4.4 6 7.7 7.4 4.1 1-2.5-2-6.4-4.9-6.4-2 0-2.5.5-2.5 2.3zm-28.3 3.3c-.3.5-.1 2.8.5 5 2 7.5-2 14.3-8.4 14.5-3 0-3.1.1-1.4 1.2 4.5 2.8 5.7 4.8 5.6 9-.3 6.2-.1 6.5 1.5 2.9 2.4-5.4 6.2-8.2 11.2-8.2 3.7 0 5 .5 7.2 2.9 1.5 1.6 3.2 4.6 3.8 6.7l1 3.9.2-3.2c.3-8.9 2.2-13.6 7.7-19.1 3-2.9 5.4-5.5 5.4-5.6 0-.2-2.5 1-5.6 2.6-11.5 5.7-20.8 2.6-25.9-8.6-1.2-2.7-2.4-4.5-2.8-4zm9.9 17.1c.6 2 .2 3.1-1.6 4.5-3.9 3.1-8 1.7-8-2.7 0-3 1.9-4.5 5.7-4.5 2.7 0 3.4.5 3.9 2.7zm-7.3.9c-.3.8-.1 2 .5 2.6 1.3 1.3 5.2-.7 5.2-2.7s-4.9-1.9-5.7.1zm-9-14.7c-3.5 2.2-5.7 7.5-4.7 11.5.5 2 1.2 2.6 3.4 2.6 4.1 0 6.5-3.3 6.5-9.1 0-6.3-1.2-7.4-5.2-5zm36.4 13.6C57.8 44.3 55 51.6 55 58.2c0 4.5 1.2 4.8 6.1 1.5 6.1-4 9.4-13.6 6.9-20.1-1.3-3.4-2-3.3-6.3.9zM18 49c-1.1 2.8-1.1 3.4.7 5.8 1.2 1.6 3 2.7 4.4 2.7 2.1 0 2.4-.5 2.7-4.1.3-4.2-.6-5.6-4.4-6.8-1.7-.5-2.4 0-3.4 2.4zm17.3 2.5c-1.1.8-2.8 3.4-3.8 5.7-1.6 4.2-1.6 4.3.5 6 4.8 3.9 13.9 4.1 17 .3 1.8-2.1.4-8.2-2.5-11.1-2.8-2.8-7.9-3.2-11.2-.9z"/></svg>