<svg xmlns="http://www.w3.org/2000/svg" width="101" height="117" xmlns:v="https://vecta.io/nano"><path d="M39 18c6 0 6 0 8.875 1.063 3.071.921 4.113.913 7.125.375 3.066-.475 4.187-.381 7.313.563 3.381 2.516 4.822 4.953 5.688 9 .107 2.58.068 5.091-.09 7.668.102 2.642.899 4.005 2.09 6.332.351 3.334.145 6.654 0 10l-.09 2.852C69.556 62.123 68.344 65.731 65 71l-2 7c-1.981 4.057-4.238 6.492-8 9l-2.687.5L50 88a89.26 89.26 0 0 0-2 4c-3.394 2.501-4.674 3-9 3l-.312-10.25-.127-2.934c-.046-2.693-.035-5.164.439-7.816 2.453-2.426 2.453-2.426 5-4 .859-1.924.859-1.924 1.063-3.937.588-3.116.82-3.935 3.063-6.375C51.105 55.416 50.748 51.041 50 46c-1.076-2.694-2.303-4.614-4-7h-7V18z"/></svg>