<svg xmlns="http://www.w3.org/2000/svg" width="67" height="61" xmlns:v="https://vecta.io/nano"><path d="M49 7c5.829 4.468 10.262 9.776 12 17 1.271 10.328-.269 17.769-6.539 26.027-5.008 5.613-10.993 8.4-18.418 9.352-8.069.321-14.828-1.149-21.301-6.109-6.998-6.468-9.903-12.695-10.305-22.207.277-8.564 3.09-14.594 8.75-20.937C23.095 1.093 37.602.188 49 7zM14.227 18.121C10.336 24.081 10.29 30.087 11 37c1.719 6.186 5.682 10.528 11 14 6.026 2.913 12.909 3.137 19.348 1.348 5.811-2.609 10.031-6.995 12.793-12.707 1.968-6.047 1.919-13.175-.703-19.016C50.1 14.944 45.246 11.033 39 9c-10.708-1.27-17.886.829-24.773 9.121zM36 18v26l-5 1c-2.059-2.059-1.414-6.217-1.562-9.062l-.131-2.299L29 28l-4-1c0-4.584 0-4.584 2.688-7.312l1.512-1.613C31 17 31 17 36 18z"/></svg>