<svg xmlns="http://www.w3.org/2000/svg" width="169" height="203" xmlns:v="https://vecta.io/nano"><path d="M77 55h8v44c-2.88.96-4.814 1.164-7.812 1.188l-2.52.043C71.552 99.961 68.925 99.08 66 98l-.262 2.641C64.731 109.179 62.829 116.308 59 124l-.91 2.301c-1.163 2.35-1.812 3.36-4.09 4.699-5.07.58-9.922.402-15 0-7.155-13.352-13.373-26.091-13.5-41.5l-.02-2.21C25.734 76.651 30.515 70.266 38 63c5.368-4.655 11.745-6.431 18.816-6.266 3.427.417 6.616 1.434 9.887 2.512 2.086.685 4.162 1.249 6.297 1.754l1.5-3 2.5-3z"/></svg>